<?xml version="1.0" encoding="UTF-8"?>
<!DOCTYPE svg PUBLIC "-//W3C//DTD SVG 1.1//EN" "http://www.w3.org/Graphics/SVG/1.1/DTD/svg11.dtd">
<svg version="1.1" xmlns="http://www.w3.org/2000/svg" xmlns:xlink="http://www.w3.org/1999/xlink" x="0" y="0" width="550" height="550" viewBox="0, 0, 550, 550">
  <g id="Layer_1">
    <g>
      <g>
        <path d="M112.353,185.907 L439.753,185.907 L439.753,465.378 L112.353,465.378 L112.353,185.907 z" fill-opacity="0" stroke="#FFFFFF" stroke-width="10"/>
        <g>
          <path d="M144.706,465.378 L248.77,465.378 L248.77,511.833 L144.706,511.833 L144.706,465.378 z" fill="#FFFFFF"/>
          <path d="M144.706,465.378 L248.77,465.378 L248.77,511.833 L144.706,511.833 L144.706,465.378 z" fill-opacity="0" stroke="#FFFFFF" stroke-width="6"/>
        </g>
        <g>
          <path d="M308.498,465.378 L412.562,465.378 L412.562,511.833 L308.498,511.833 L308.498,465.378 z" fill="#FFFFFF"/>
          <path d="M308.498,465.378 L412.562,465.378 L412.562,511.833 L308.498,511.833 L308.498,465.378 z" fill-opacity="0" stroke="#FFFFFF" stroke-width="6"/>
        </g>
        <g>
          <path d="M439.754,245.636 L481.097,245.636 L481.097,328.224 L439.754,328.224 L439.754,245.636 z" fill="#FFFFFF"/>
          <path d="M439.754,245.636 L481.097,245.636 L481.097,328.224 L439.754,328.224 L439.754,245.636 z" fill-opacity="0" stroke="#FFFFFF" stroke-width="6"/>
        </g>
        <g>
          <path d="M69.903,245.636 L111.247,245.636 L111.247,328.223 L69.903,328.223 L69.903,245.636 z" fill="#FFFFFF"/>
          <path d="M69.903,245.636 L111.247,245.636 L111.247,328.223 L69.903,328.223 L69.903,245.636 z" fill-opacity="0" stroke="#FFFFFF" stroke-width="6"/>
        </g>
        <g>
          <path d="M301.677,185.907 L248.77,185.907 L248.77,146.826 L301.677,146.826 L301.677,185.907 z" fill="#FFFFFF"/>
          <path d="M301.677,185.907 L248.77,185.907 L248.77,146.826 L301.677,146.826 L301.677,185.907 z" fill-opacity="0" stroke="#FFFFFF" stroke-width="6"/>
        </g>
        <path d="M211.032,321.087 C191.891,321.087 176.374,305.57 176.374,286.43 C176.374,267.289 191.891,251.772 211.032,251.772 C230.172,251.772 245.689,267.289 245.689,286.43 C245.689,305.57 230.172,321.087 211.032,321.087 z" fill="#FFFFFF"/>
        <path d="M340.075,321.087 C320.934,321.087 305.417,305.57 305.417,286.43 C305.417,267.289 320.934,251.772 340.075,251.772 C359.215,251.772 374.732,267.289 374.732,286.43 C374.732,305.57 359.215,321.087 340.075,321.087 z" fill="#FFFFFF"/>
      </g>
      <path d="M550.216,276.049 L550.216,328.801 C550.216,357.933 519.409,381.553 481.412,381.553 C462.397,381.553 447.01,369.755 447.01,355.177 L447.01,196.922 C447.01,124.079 370.009,65.042 275,65.042 C180.008,65.042 102.99,124.079 102.99,196.922 L102.99,355.177 C102.99,369.756 87.602,381.553 68.588,381.553 C30.591,381.553 -0.216,357.933 -0.216,328.801 L-0.216,276.049 C-0.216,246.917 30.591,223.298 68.588,223.298 L68.588,196.922 C68.588,109.526 161.01,38.667 275,38.667 C388.99,38.667 481.412,109.526 481.412,196.922 L481.412,223.298 C519.409,223.298 550.216,246.917 550.216,276.049 z" fill="#FFFFFF" id="headphone-2"/>
    </g>
  </g>
</svg>
