
<svg width="106px" height="35px" viewBox="0 0 106 35" version="1.1" xmlns="http://www.w3.org/2000/svg" xmlns:xlink="http://www.w3.org/1999/xlink">
    <!-- Generator: Sketch 43.1 (39012) - http://www.bohemiancoding.com/sketch -->
    <desc>Created with Sketch.</desc>
    <defs></defs>
    <g id="Welcome" stroke="none" stroke-width="1" fill="none" fill-rule="evenodd">
        <g id="Desktop" transform="translate(-14.000000, -11.000000)" fill="#F9FBFC">
            <g id="Logo-Secondary" transform="translate(14.000000, 11.000000)">
                <g id="Listen-Logo">
                    <g id="Group" transform="translate(0.141208, 19.498258)">
                        <g id="Layer2">
                            <g id="Group" transform="translate(0.860549, 0.000000)" fill-opacity="0.6">
                                <path d="M6.50655853,7.55003263 C14.9666905,7.45022894 25.7151524,7.12344694 31.9005302,5.46650535 C37.4526522,3.97929679 45.4015439,0.399715464 50.9693939,0.122000837 C59.4977354,-0.303416582 65.2751805,6.07901297 73.0078548,5.48736732 C78.9190701,5.03507968 85.2724883,5.08297877 91.2709522,5.6712865 C95.3173326,6.06799784 99.2438497,6.78781947 103.610583,7.43654348 L104.45211,7.435709 C104.309731,7.45623719 104.167683,7.47693227 104.026297,7.49796114 C104.167683,7.51865622 104.309731,7.5393513 104.45211,7.55987948 L103.613066,7.56021328 C99.2455053,8.22679514 95.3181604,9.09431956 91.2709522,9.49119779 C85.2724883,10.0793386 78.9190701,10.1274046 73.0078548,9.67511697 C65.2751805,9.08330443 59.4977354,15.4659009 50.9693939,15.0404835 C45.4015439,14.7627688 37.4526522,11.1831875 31.9005302,9.69597895 C25.4919814,7.97928865 14.1847645,7.69022511 5.59963688,7.60243792 L0.0508260214,7.60494135 C1.00393809,7.59642967 2.04429874,7.58958694 3.15154444,7.58124215 C2.04429874,7.57289736 1.00393809,7.56605463 0.0508260214,7.55754294 L6.50655853,7.55003263 Z" id="Shape"></path>
                            </g>
                            <g id="Group" transform="translate(0.088275, 1.737738)" fill-opacity="0.4">
                                <path d="M0.148504695,5.80530384 C5.81817222,5.57432004 8.51476583,5.58016139 14.1829433,4.91508159 C15.7335509,4.73316516 19.0758171,3.63499073 20.5439772,3.18687548 C23.3120915,2.3420489 26.5851548,1.80681403 29.4698212,1.60453631 C36.8592956,1.08682551 41.3816526,4.73032793 48.7443068,3.65168031 C53.7115157,2.92401458 60.513428,0.391704465 65.4907359,0.1194974 C69.710289,-0.111152609 73.5399552,1.5132443 77.4858425,2.71155622 C79.9582718,3.46242046 83.5877795,3.86547384 86.6931335,4.25400729 C92.2300243,4.94712559 104.66187,5.86171462 104.66187,5.86171462 C98.8859153,6.01759531 92.2300243,6.36624065 86.6931335,7.05919206 C83.5877795,7.4477255 79.9582718,7.85077888 77.4858425,8.60164313 C73.5399552,9.79995504 69.710289,11.424352 65.4907359,11.1937019 C60.513428,10.9214949 53.7115157,8.38918476 48.7443068,7.66151903 C41.3816526,6.58287142 36.8592956,10.2263738 29.4698212,9.70866303 C26.5851548,9.50638531 23.3120915,8.97115045 20.5439772,8.12632386 C19.0758171,7.67820861 15.7335509,6.58003419 14.1829433,6.39811775 C8.51476583,5.73303795 0.148504695,5.80530384 0.148504695,5.80530384 Z" id="Shape"></path>
                            </g>
                        </g>
                    </g>
                    <g id="Group" transform="translate(32.233941, 0.114069)" fill-rule="nonzero">
                        <path d="M2.01962635,15.2157731 C2.48908833,15.2157731 2.78783687,15.1530404 3.02256786,15.0484858 L2.78783687,13.7520094 C2.59578424,13.7938312 2.51042751,13.7938312 2.40373161,13.7938312 C2.14766144,13.7938312 1.91293045,13.5847221 1.91293045,13.0410384 L1.91293045,0.0762742156 L0.16311761,0.0762742156 L0.16311761,12.915573 C0.16311761,14.4002476 0.696597134,15.2157731 2.01962635,15.2157731 Z" id="Shape"></path>
                        <path d="M4.5376497,14.9648422 L6.28746254,14.9648422 L6.28746254,4.80213989 L4.5376497,4.80213989 L4.5376497,14.9648422 Z M5.4338953,2.71104888 C6.11674909,2.71104888 6.65022861,2.25100886 6.65022861,1.60277065 C6.65022861,0.933621527 6.11674909,0.494492416 5.4338953,0.494492416 C4.75104151,0.494492416 4.21756199,0.933621527 4.21756199,1.60277065 C4.21756199,2.25100886 4.75104151,2.71104888 5.4338953,2.71104888 Z" id="Shape"></path>
                        <path d="M11.4302051,15.2157731 C13.8842109,15.2157731 15.2285793,13.835653 15.2285793,12.1836911 C15.2285793,10.2598874 13.5641232,9.65347101 12.0703806,9.10978735 C10.8967256,8.67065824 9.76574903,8.31517277 9.76574903,7.35327091 C9.76574903,6.57956724 10.3632461,5.88950721 11.6649361,5.88950721 C12.5825209,5.88950721 13.3293922,6.26590359 14.0335852,6.78867634 L14.8658133,5.70130902 C14.0762636,5.07398172 12.945287,4.55120896 11.643597,4.55120896 C9.40298295,4.55120896 8.07995374,5.80586357 8.07995374,7.43691455 C8.07995374,9.15160917 9.70173149,9.84166921 11.174135,10.364442 C12.3051116,10.7826602 13.5427841,11.2427002 13.5427841,12.2882457 C13.5427841,13.1665039 12.8599303,13.8774748 11.4942227,13.8774748 C10.2565502,13.8774748 9.33896541,13.375613 8.44271981,12.6646421 L7.56781339,13.8147421 C8.54941572,14.6093567 9.95780166,15.2157731 11.4302051,15.2157731 Z" id="Shape"></path>
                        <path d="M20.2859652,15.2157731 C20.9261407,15.2157731 21.6303336,15.0275749 22.2064915,14.8393767 L21.8650646,13.5429003 C21.5236377,13.6683657 21.0541757,13.8147421 20.6914097,13.8147421 C19.4964155,13.8147421 19.0909711,13.1037712 19.0909711,11.8491166 L19.0909711,6.20317086 L21.8864038,6.20317086 L21.8864038,4.80213989 L19.0909711,4.80213989 L19.0909711,1.95825612 L17.6185676,1.95825612 L17.4051758,4.80213989 L15.7833981,4.90669444 L15.7833981,6.20317086 L17.3198191,6.20317086 L17.3198191,11.8282057 C17.3198191,13.835653 18.0666904,15.2157731 20.2859652,15.2157731 Z" id="Shape"></path>
                        <path d="M27.925392,15.2157731 C29.3337779,15.2157731 30.4434154,14.7348222 31.339661,14.1702276 L30.7208247,13.0410384 C29.9526142,13.5219894 29.1203861,13.835653 28.1387838,13.835653 C26.15424,13.835653 24.8098716,12.455533 24.6818365,10.3017092 L31.6810878,10.3017092 C31.7237662,10.0507783 31.7451054,9.67438192 31.7451054,9.31889645 C31.7451054,6.41227996 30.2513627,4.55120896 27.6053043,4.55120896 C25.2366552,4.55120896 22.9533628,6.57956724 22.9533628,9.90440194 C22.9533628,13.2292366 25.1512985,15.2157731 27.925392,15.2157731 Z M24.6604973,9.06796553 C24.8738891,7.06051817 26.1969183,5.91041812 27.6479827,5.91041812 C29.2697604,5.91041812 30.2086844,7.01869635 30.2086844,9.06796553 L24.6604973,9.06796553 Z" id="Shape"></path>
                        <path d="M33.0254562,14.9648422 L34.7752691,14.9648422 L34.7752691,7.60420183 C35.8208889,6.57956724 36.5464211,6.03588358 37.6133801,6.03588358 C38.9790877,6.03588358 39.5765848,6.85140907 39.5765848,8.75430188 L39.5765848,14.9648422 L41.3263976,14.9648422 L41.3263976,8.52428187 C41.3263976,5.93132903 40.3447953,4.55120896 38.1681989,4.55120896 C36.7384737,4.55120896 35.6715147,5.30400173 34.6899124,6.26590359 L34.6258948,6.26590359 L34.4765205,4.80213989 L33.0254562,4.80213989 L33.0254562,14.9648422 Z" id="Shape"></path>
                    </g>
                </g>
            </g>
        </g>
    </g>
</svg>
